# xmcd CD database file
#
# Track frame offsets:
#	150
#	23443
#	33368
#	50813
#	63580
#	76681
#	86588
#	101708
#	122798
#	139109
#
# Disc length: 2039 seconds
#
# Revision: 0
# Processed by: cddbd v1.5.2PL0 Copyright (c) Steve Scherf et al.
# Submitted via: CDex 1.51
#
DISCID=7d07f50a
DTITLE=Roland Van Campenhout - New found sacred ground
DYEAR=2013
DGENRE=Blues
TTITLE0=Raised like a dog
TTITLE1=In and out o' love
TTITLE2=Dream on, little girl
TTITLE3=The sacred song
TTITLE4=Back to you
TTITLE5=Bend in the river
TTITLE6=Calling home
TTITLE7=Parcours!
TTITLE8=Better than non
TTITLE9=Even higher
EXTD=YEAR: 2013
EXTT0=
EXTT1=
EXTT2=
EXTT3=
EXTT4=
EXTT5=
EXTT6=
EXTT7=
EXTT8=
EXTT9=
PLAYORDER=
